{"title":"Turbo 2013 VOBrip x264 AAC-MiLLENiUM","uid":8992679,"size":1256481014,"categoryP":"video","categoryS":"movies","magnet":"?xt=urn:btih:a6bd48298dfc7ab0f1a1bfba07b455a6cd126327&amp;dn=Turbo+2013+VOBrip+x264+AAC-MiLLENiUM&amp;tr=udp%3A%2F%2Ftracker.openbittorrent.com%3A80&amp;tr=udp%3A%2F%2Fopen.demonii.com%3A1337&amp;tr=udp%3A%2F%2Ftracker.coppersurfer.tk%3A6969&amp;tr=udp%3A%2F%2Fexodus.desync.com%3A6969","seeders":1,"leechers":0,"uploader":"TeX","files":4,"time":1380825758,"description":"General\nComplete name                            : Turbo 2013 VOBrip x264 AAC-MiLLENiUM.mp4\nsource                                   : Turbo 2013_SmY 6gb vobs [thanks]\nFormat                                   : MPEG-4\nFormat profile                           : Base Media\nCodec ID                                 : isom\nFile size                                : 1.15 GiB\nDuration                                 : 1h 40mn\nOverall bit rate mode                    : Variable\nOverall bit rate                         : 1 642 Kbps\nEncoded date                             : UTC 2013-10-03 08:28:48\nTagged date                              : UTC 2013-10-03 08:28:48\n\nVideo\nID                                       : 1\nFormat                                   : AVC\nFormat/Info                              : Advanced Video Codec\nFormat profile                           : &lt;a class=&quot;__cf_email__&quot; href=&quot;/cdn-cgi/l/email-protection&quot; data-cfemail=&quot;a5edccc2cde5e9918b94&quot;&gt;[email&amp;#160;protected]&lt;/a&gt;&lt;script cf-hash='f9e31' type=&quot;text/javascript&quot;&gt;\n/* &lt;![CDATA[ */!function(){try{var t=&quot;currentScript&quot;in document?document.currentScript:function(){for(var t=document.getElementsByTagName(&quot;script&quot;),e=t.length;e--;)if(t[e].getAttribute(&quot;cf-hash&quot;))return t[e]}();if(t&amp;&amp;t.previousSibling){var e,r,n,i,c=t.previousSibling,a=c.getAttribute(&quot;data-cfemail&quot;);if(a){for(e=&quot;&quot;,r=parseInt(a.substr(0,2),16),n=2;a.length-n;n+=2)i=parseInt(a.substr(n,2),16)^r,e+=String.fromCharCode(i);e=document.createTextNode(e),c.parentNode.replaceChild(e,c)}}}catch(u){}}();/* ]]&gt; */&lt;/script&gt;\nFormat settings, CABAC                   : Yes\nFormat settings, ReFrames                : 3 frames\nCodec ID                                 : avc1\nCodec ID/Info                            : Advanced Video Coding\nDuration                                 : 1h 40mn\nBit rate mode                            : Variable\nBit rate                                 : 1 510 Kbps\nMaximum bit rate                         : 40.0 Mbps\nWidth                                    : 720 pixels\nHeight                                   : 304 pixels\nDisplay aspect ratio                     : 2.35:1\nFrame rate mode                          : Constant\nFrame rate                               : 29.970 fps\nColor space                              : YUV\nChroma subsampling                       : 4:2:0\nBit depth                                : 8 bits\nScan type                                : Progressive\nBits/(Pixel*Frame)                       : 0.230\nStream size                              : 1.06 GiB (92%)\nWriting library                          : x264 core 138 r2358 9e941d1\nEncoded date                             : UTC 2013-10-03 08:28:48\nTagged date                              : UTC 2013-10-03 08:30:27\nColor primaries                          : BT.709-5, BT.1361, IEC 61966-2-4, SMPTE RP177\nTransfer characteristics                 : BT.709-5, BT.1361\nMatrix coefficients                      : BT.709-5, BT.1361, IEC 61966-2-4 709, SMPTE RP177\n\nAudio\nID                                       : 2\nFormat                                   : AAC\nFormat/Info                              : Advanced Audio Codec\nFormat profile                           : HE-AAC / LC\nCodec ID                                 : 40\nDuration                                 : 1h 40mn\nBit rate mode                            : Variable\nBit rate                                 : 128 Kbps\nMaximum bit rate                         : 137 Kbps\nChannel(s)                               : 2 channels\nChannel positions                        : Front: L R\nSampling rate                            : 48.0 KHz / 24.0 KHz\nCompression mode                         : Lossy\nStream size                              : 91.7 MiB (8%)\nEncoded date                             : UTC 2013-10-03 02:43:14\nTagged date                              : UTC 2013-10-03 08:30:27\n\nnotes :\n\nR6 ? CAM ? TS ? HDrip ? WEBrip ???? .......... You decide \nencode was ripped from vobs hence VOBrip \nTweaked colours, hue, sat, cont and brightness and sharpend \nenjoy ;)\n\nScreens :\n\n[url=http://postimage.org/][img]http://s18.postimg.org/52ehns7bd/VTS_01_1059649.png[/img][/url]\n\n[url=http://postimage.org/][img]http://s18.postimg.org/goylowumh/VTS_01_1074020.png[/img][/url]\n\n[url=http://postimage.org/][img]http://s18.postimg.org/3w5wb8tmx/VTS_01_1130733.png[/img][/url]\n\n[url=http://postimage.org/][img]http://s18.postimg.org/lc4nqohzd/VTS_01_1138459.png[/img][/url]\n\n\n","torrent":{"xt":"urn:btih:a6bd48298dfc7ab0f1a1bfba07b455a6cd126327","amp;dn":"Turbo+2013+VOBrip+x264+AAC-MiLLENiUM","amp;tr":["udp%3A%2F%2Ftracker.openbittorrent.com%3A80","udp%3A%2F%2Fopen.demonii.com%3A1337","udp%3A%2F%2Ftracker.coppersurfer.tk%3A6969","udp%3A%2F%2Fexodus.desync.com%3A6969"],"infoHash":"a6bd48298dfc7ab0f1a1bfba07b455a6cd126327","infoHashBuffer":{"type":"Buffer","data":[166,189,72,41,141,252,122,176,241,161,191,186,7,180,85,166,205,18,99,39]},"announce":[],"urlList":[]}}